<svg width="32" height="32" viewBox="0 0 32 32" fill="none" xmlns="http://www.w3.org/2000/svg">
<path d="M22.1484 4.00001C21.0053 3.99805 19.8774 4.26287 18.8546 4.77342C17.8318 5.28397 16.9422 6.02616 16.2566 6.94095C15.3281 5.70556 14.0346 4.79343 12.5592 4.33364C11.0838 3.87384 9.50112 3.88966 8.03518 4.37886C6.56924 4.86806 5.29425 5.80586 4.39063 7.05956C3.48701 8.31326 3.00052 9.81938 3 11.3648C3 20.1857 15.2551 27.15 15.7768 27.4421C15.9234 27.5242 16.0886 27.5673 16.2566 27.5673C16.4246 27.5673 16.5898 27.5242 16.7364 27.4421C18.9904 26.122 21.1058 24.5785 23.0508 22.835C27.3389 18.9757 29.5132 15.1165 29.5132 11.3648C29.511 9.41221 28.7344 7.54024 27.3537 6.15955C25.973 4.77886 24.101 4.00222 22.1484 4.00001Z" fill="#FAF4E1"/>
</svg>
