<?xml version="1.0" encoding="UTF-8"?>
<svg id="Layer_1" xmlns="http://www.w3.org/2000/svg" version="1.1" viewBox="0 0 64 39.2">
  <!-- Generator: Adobe Illustrator 29.3.1, SVG Export Plug-In . SVG Version: 2.1.0 Build 151)  -->
  <defs>
    <style>
      .st0 {
        isolation: isolate;
        opacity: 1;
      }

      .st0, .st1, .st2, .st3 {
        fill: none;
        stroke: #000;
        stroke-miterlimit: 10;
      }

      .st0, .st2 {
        stroke-width: 2px;
      }

      .st0, .st3 {
        stroke-linecap: round;
      }
    </style>
  </defs>
  <line class="st2" x1="60.9" y1="34.3" x2="60.9" y2="5.8"/>
  <path class="st0" d="M32.2,36.9c2.4-3,18-6.9,28.6-2.7"/>
  <circle class="st1" cx="32" cy="37" r=".8"/>
  <path class="st1" d="M32,8.5c0-3.5,15-9.1,26-7.1v27.7c-11-2-26,3.5-26,7.1"/>
  <path class="st0" d="M31.6,36.9c-2.4-3-18-6.9-28.6-2.7"/>
  <path class="st0" d="M5.5,4.9c-1,.2-1.5.5-2.5.8"/>
  <line class="st2" x1="3" y1="34.3" x2="3" y2="5.8"/>
  <path class="st0" d="M5.4,5c-1,.2-1.4.3-2.4.7"/>
  <path class="st0" d="M58.6,4.9c1,.2,1.3.5,2.2.8"/>
  <line class="st2" x1="3" y1="34.3" x2="3" y2="5.8"/>
  <path class="st1" d="M32,8.5c0-3.5-15-9.1-26-7.1v27.7c11-2,26,3.5,26,7.1"/>
  <line class="st1" x1="32" y1="8.1" x2="32" y2="35.4"/>
  <g id="Layer_2">
    <line class="st3" x1="34.5" y1="5.8" x2="34.5" y2="16"/>
    <line class="st3" x1="38.5" y1="4.1" x2="38.5" y2="15.8"/>
    <line class="st3" x1="38.5" y1="15.8" x2="36.5" y2="13.8"/>
    <line class="st3" x1="34.5" y1="16" x2="36.5" y2="13.8"/>
  </g>
</svg>