<svg width="32" height="32" viewBox="0 0 32 32" fill="none" xmlns="http://www.w3.org/2000/svg">
<g clip-path="url(#clip0_209_467)">
<path d="M30.6668 5.33335V13.3334M30.6668 13.3334H22.6668M30.6668 13.3334L24.4802 7.52002C23.0472 6.0863 21.2743 5.03896 19.3271 4.47572C17.3798 3.91247 15.3216 3.85169 13.3445 4.29903C11.3675 4.74637 9.5359 5.68726 8.02079 7.03391C6.50567 8.38056 5.35639 10.0891 4.68016 12M1.3335 26.6667V18.6667M1.3335 18.6667H9.3335M1.3335 18.6667L7.52016 24.48C8.95316 25.9137 10.726 26.9611 12.6732 27.5243C14.6205 28.0876 16.6787 28.1484 18.6558 27.701C20.6329 27.2537 22.4644 26.3128 23.9795 24.9661C25.4947 23.6195 26.6439 21.911 27.3202 20" stroke="#1E1E1E" stroke-width="3" stroke-linecap="round" stroke-linejoin="round"/>
</g>
<defs>
<clipPath id="clip0_209_467">
<rect width="32" height="32" fill="white"/>
</clipPath>
</defs>
</svg>
